#!OML:ASF H:\Terrain\Patient Classification 1\Walking\steve\steve.ASF
:FULLY-SPECIFIED
:DEGREES
61
root 7.55823 15.3567 -24.3863 9.7838 5.96328 2.32152
lowerback 1.68088 -1.59379 0.249349
upperback -3.60107 -1.98719 3.26287
thorax -4.55388 -0.933553 3.34885
lowerneck -10.2441 -0.0294481 -0.300526
upperneck 9.43727 0.00615843 -0.00731393
head 4.50267 -0.00823839 0.0469517
rclavicle -4.31363e-014 2.54444e-014
rhumerus -48.6952 -14.6566 -70.5431
rradius 24.6567
rwrist 8.8405
rhand -22.5226 -34.9734
rfingers 7.12502
rthumb 3.9041 -64.9174
lclavicle -4.31363e-014 2.54444e-014
lhumerus -23.7429 7.76976 89.1134
lradius 16.3193
lwrist -14.361
lhand -24.2642 -21.4795
lfingers 7.12502
lthumb 2.22224 8.4887
rfemur -40.9869 2.5989 21.5002
rtibia 49.5285
rfoot -16.3336 8.10713
rtoes 0.596481
lfemur 0.782062 0.260307 -22.3609
ltibia 49.6085
lfoot 8.23211 1.86993
ltoes -8.47808
62
root 7.55713 15.4073 -24.2069 9.73891 5.85891 2.17609
lowerback 1.47878 -1.45918 0.330247
upperback -3.58102 -1.80867 3.25702
thorax -4.43035 -0.848855 3.2802
lowerneck -9.84416 -0.0618131 -0.672159
upperneck 9.37683 -0.0217518 0.319502
head 4.41792 -0.0156385 0.206058
rclavicle -6.55989e-015 -1.74931e-014
rhumerus -47.3794 -14.9192 -70.7662
rradius 24.1879
rwrist 9.36793
rhand -22.7894 -34.952
rfingers 7.12502
rthumb 3.64651 -64.9006
lclavicle -6.55989e-015 -1.74931e-014
lhumerus -24.9137 8.5428 88.4072
lradius 16.2355
lwrist -15.3304
lhand -24.6232 -21.6999
lfingers 7.12502
lthumb 1.87549 8.27159
rfemur -39.728 2.50722 21.8362
rtibia 48.6518
rfoot -16.6356 8.40194
rtoes 0.864681
lfemur -0.819246 0.766932 -22.2013
ltibia 51.1017
lfoot 7.77061 0.115872
ltoes -10.5458
63
root 7.55122 15.4648 -24.026 9.69534 5.54163 2.1162
lowerback 1.15883 -1.24242 0.278743
upperback -3.38528 -1.53587 3.17261
thorax -4.0597 -0.717282 3.19293
lowerneck -10.1257 -0.121085 -0.744363
upperneck 9.7167 -0.0982764 0.399694
head 4.56965 -0.0511963 0.237554
rclavicle 2.127e-014 -1.90833e-014
rhumerus -46.1742 -14.2287 -71.9814
rradius 24.7605
rwrist 8.68159
rhand -23.2519 -35.604
rfingers 7.12502
rthumb 3.1998 -65.5597
lclavicle 2.127e-014 -1.90833e-014
lhumerus -25.8157 9.35921 87.597
lradius 16.2617
lwrist -16.3676
lhand -24.4753 -21.9802
lfingers 7.12502
lthumb 2.0183 7.99
rfemur -38.4761 2.72492 22.0051
rtibia 47.818
rfoot -16.9203 8.60367
rtoes 1.53598
lfemur -2.31887 1.55495 -22.1651
ltibia 52.4329
lfoot 6.09675 -1.44392
ltoes -15.6731
64
root 7.54723 15.5209 -23.8485 9.79539 5.31538 2.16885
lowerback 0.800875 -1.04358 0.115279
upperback -3.30282 -1.28741 3.07778
thorax -3.78233 -0.592791 3.16444
lowerneck -10.7171 -0.196438 -0.460282
upperneck 10.5008 -0.197155 0.0455465
head 4.91026 -0.11191 0.0746168
rclavicle 1.94809e-014 -2.22639e-014
rhumerus -45.1609 -13.1056 -73.2855
rradius 25.5007
rwrist 7.6522
rhand -23.9416 -36.3545
rfingers 7.12502
rthumb 2.5338 -66.3192
lclavicle 1.94809e-014 -2.22639e-014
lhumerus -26.5129 9.58003 86.9921
lradius 15.7851
lwrist -16.758
lhand -24.1408 -21.1096
lfingers 7.12502
lthumb 2.34134 8.8573
rfemur -37.4362 2.81404 22.039
rtibia 47.0441
rfoot -17.3127 8.70671
rtoes 1.11445
lfemur -3.95069 2.05169 -22.2859
ltibia 53.5404
lfoot 3.90006 -2.10443
ltoes -15.6121
65
root 7.54703 15.5632 -23.6775 9.82191 5.13868 1.94452
lowerback 0.745024 -0.829193 0.284573
upperback -3.53621 -0.988772 3.11541
thorax -4.01164 -0.444835 3.09998
lowerneck -10.335 -0.297395 -0.402514
upperneck 11.004 -0.290112 -0.374001
head 5.00191 -0.183504 -0.0717092
rclavicle -2.3059e-014 2.70347e-014
rhumerus -44.7946 -11.67 -74.1978
rradius 26.3998
rwrist 6.42495
rhand -25.1606 -36.6174
rfingers 7.12502
rthumb 1.35647 -66.5929
lclavicle -2.3059e-014 2.70347e-014
lhumerus -27.7696 8.94407 86.7633
lradius 15.4943
lwrist -16.2229
lhand -22.4231 -18.3463
lfingers 7.12502
lthumb 4.0002 11.5959
rfemur -36.3941 2.87707 22.3925
rtibia 46.3107
rfoot -17.6522 8.74222
rtoes 0.679808
lfemur -5.62886 2.5736 -22.1239
ltibia 54.4894
lfoot 1.91381 -2.71092
ltoes -15.8885
66
root 7.55159 15.599 -23.5045 9.63287 4.83523 1.47578
lowerback 0.86267 -0.585648 0.722041
upperback -3.72539 -0.636568 3.22693
thorax -4.29756 -0.278563 2.96038
lowerneck -10.2059 -0.510809 -0.484612
upperneck 11.6648 -0.524525 -0.666624
head 5.18491 -0.323087 -0.167394
rclavicle 8.39865e-015 -5.88403e-014
rhumerus -44.4375 -10.0703 -75.1543
rradius 27.3627
rwrist 4.75323
rhand -25.6172 -35.1059
rfingers 7.12502
rthumb 0.915489 -65.0837
lclavicle 8.39865e-015 -5.88403e-014
lhumerus -29.2358 8.10604 86.6561
lradius 15.705
lwrist -15.3098
lhand -21.963 -17.738
lfingers 7.12502
lthumb 4.44453 12.1954
rfemur -35.1826 3.09432 22.9859
rtibia 45.6401
rfoot -17.7621 9.04631
rtoes 1.63574
lfemur -7.02698 3.29133 -21.7477
ltibia 55.2825
lfoot 0.0592819 -3.39878
ltoes -19.5418
67
root 7.5564 15.6332 -23.3328 9.53315 4.5425 1.20533
lowerback 0.743217 -0.387432 0.957752
upperback -3.6542 -0.371415 3.17839
thorax -4.16927 -0.156302 2.76274
lowerneck -10.4354 -0.58692 -0.135625
upperneck 12.1298 -0.625744 -1.05078
head 5.36577 -0.385367 -0.353941
rclavicle -8.00108e-015 3.49861e-014
rhumerus -43.6123 -8.63728 -76.4613
rradius 28.2812
rwrist 2.93006
rhand -25.5669 -33.6994
rfingers 7.12502
rthumb 0.964033 -63.677
lclavicle -8.00108e-015 3.49861e-014
lhumerus -30.2294 7.2985 86.3847
lradius 15.9946
lwrist -14.4224
lhand -23.5904 -20.3166
lfingers 7.12502
lthumb 2.87289 9.64375
rfemur -34.0711 3.28481 23.3215
rtibia 44.9972
rfoot -17.6107 9.5779
rtoes 3.74729
lfemur -8.42532 3.72742 -21.5908
ltibia 55.9813
lfoot -1.62748 -3.87328
ltoes -17.3477
68
root 7.55476 15.6711 -23.1675 9.55313 4.3093 1.31364
lowerback 0.518853 -0.193831 0.727989
upperback -3.47559 -0.136479 3.01684
thorax -3.86482 -0.0366085 2.71011
lowerneck -10.5783 -0.655478 -0.146217
upperneck 12.2501 -0.747652 -0.817121
head 5.42776 -0.429282 -0.289458
rclavicle 2.38542e-015 1.43125e-014
rhumerus -42.6323 -7.77317 -77.4241
rradius 29.3071
rwrist 2.33697
rhand -25.6063 -35.133
rfingers 7.12502
rthumb 0.925956 -65.1107
lclavicle 2.38542e-015 1.43125e-014
lhumerus -30.8504 6.40941 86.1805
lradius 16.1758
lwrist -13.5769
lhand -24.2975 -21.7147
lfingers 7.12502
lthumb 2.19007 8.25383
rfemur -33.0943 3.25433 23.281
rtibia 44.3678
rfoot -17.3975 10.064
rtoes 5.35053
lfemur -9.99178 4.01953 -21.8221
ltibia 56.6276
lfoot -3.24096 -4.14657
ltoes -16.0926
